<svg width="50" height="50" viewBox="0 0 50 50" fill="none" xmlns="http://www.w3.org/2000/svg">
<path d="M16.4062 30.4688H47.6562V33.5938H16.4062V30.4688Z" fill="#3DC285"/>
<path d="M25.7812 7.03125H38.2812C40.7677 7.03125 43.1522 8.01897 44.9104 9.77712C46.6685 11.5353 47.6562 13.9198 47.6562 16.4062V17.9688C47.6562 18.3832 47.4916 18.7806 47.1986 19.0736C46.9056 19.3666 46.5082 19.5312 46.0938 19.5312H17.9688C17.5543 19.5312 17.1569 19.3666 16.8639 19.0736C16.5709 18.7806 16.4062 18.3832 16.4062 17.9688V16.4062C16.4062 13.9198 17.394 11.5353 19.1521 9.77712C20.9103 8.01897 23.2948 7.03125 25.7812 7.03125Z" fill="#D49073"/>
<path d="M17.9688 42.9688H46.0938C46.9567 42.9688 47.6562 42.2692 47.6562 41.4062V38.2812C47.6562 37.4183 46.9567 36.7188 46.0938 36.7188H17.9688C17.1058 36.7188 16.4062 37.4183 16.4062 38.2812V41.4062C16.4062 42.2692 17.1058 42.9688 17.9688 42.9688Z" fill="#D49073"/>
<path d="M17.9688 30.4688H46.0938C46.9567 30.4688 47.6562 29.7692 47.6562 28.9062V27.3438C47.6562 26.4808 46.9567 25.7812 46.0938 25.7812H17.9688C17.1058 25.7812 16.4062 26.4808 16.4062 27.3438V28.9062C16.4062 29.7692 17.1058 30.4688 17.9688 30.4688Z" fill="#B37A60"/>
<path d="M17.9688 19.5312H46.0938C46.5082 19.5312 46.9056 19.6959 47.1986 19.9889C47.4916 20.2819 47.6562 20.6793 47.6562 21.0938C47.6562 21.5082 47.4916 21.9056 47.1986 22.1986C46.9056 22.4916 46.5082 22.6562 46.0938 22.6562H17.9688C17.5543 22.6562 17.1569 22.4916 16.8639 22.1986C16.5709 21.9056 16.4062 21.5082 16.4062 21.0938C16.4062 20.6793 16.5709 20.2819 16.8639 19.9889C17.1569 19.6959 17.5543 19.5312 17.9688 19.5312Z" fill="#EB423F"/>
<path d="M17.9688 33.5938H46.0938C46.5082 33.5938 46.9056 33.7584 47.1986 34.0514C47.4916 34.3444 47.6562 34.7418 47.6562 35.1562C47.6562 35.5707 47.4916 35.9681 47.1986 36.2611C46.9056 36.5541 46.5082 36.7188 46.0938 36.7188H17.9688C17.5543 36.7188 17.1569 36.5541 16.8639 36.2611C16.5709 35.9681 16.4062 35.5707 16.4062 35.1562C16.4062 34.7418 16.5709 34.3444 16.8639 34.0514C17.1569 33.7584 17.5543 33.5938 17.9688 33.5938Z" fill="#EBA72E"/>
<path d="M16.4062 22.6562H47.6562V25.7812H16.4062V22.6562Z" fill="#FFB632"/>
<path d="M47.6562 25.7812H35.1562L41.4062 30.4688L47.6562 25.7812Z" fill="#FFB632"/>
<path d="M2.34375 14.8438H7.03125V24.2188H2.34375V14.8438Z" fill="#EBA72E"/>
<path d="M7.03125 10.1562H11.7188V24.2188H7.03125V10.1562Z" fill="#FFB632"/>
<path d="M16.4062 10.1562H21.0938V24.2188H16.4062V10.1562Z" fill="#FFB632"/>
<path d="M11.7188 14.8438H16.4062V24.2188H11.7188V14.8438Z" fill="#EBA72E"/>
<path d="M21.0938 14.8438H25.7812V24.2188H21.0938V14.8438Z" fill="#EBA72E"/>
<path d="M23.4375 42.9688H4.6875L2.34375 24.2188H25.7812L23.4375 42.9688Z" fill="#ED6F6D"/>
<path d="M18.75 24.2188C18.75 25.462 18.2561 26.6542 17.3771 27.5333C16.498 28.4124 15.3057 28.9062 14.0625 28.9062C12.8193 28.9062 11.627 28.4124 10.7479 27.5333C9.86886 26.6542 9.375 25.462 9.375 24.2188H18.75Z" fill="#EB423F"/>
<path d="M25 42.9688C28.4518 42.9688 31.25 40.1705 31.25 36.7188C31.25 33.267 28.4518 30.4688 25 30.4688C21.5482 30.4688 18.75 33.267 18.75 36.7188C18.75 40.1705 21.5482 42.9688 25 42.9688Z" fill="#EB423F"/>
<path d="M38.2813 6.25H25.7813C24.4125 6.25111 23.0581 6.52845 21.799 7.06542C20.54 7.60239 19.4023 8.38793 18.4541 9.375H16.4063C16.1991 9.375 16.0003 9.45731 15.8538 9.60382C15.7073 9.75034 15.625 9.94905 15.625 10.1562V14.0625H12.5V10.1562C12.5 9.94905 12.4177 9.75034 12.2712 9.60382C12.1247 9.45731 11.926 9.375 11.7188 9.375H7.03125C6.82405 9.375 6.62534 9.45731 6.47882 9.60382C6.33231 9.75034 6.25 9.94905 6.25 10.1562V14.0625H2.34375C2.13655 14.0625 1.93784 14.1448 1.79132 14.2913C1.64481 14.4378 1.5625 14.6365 1.5625 14.8438V24.2188H1.56309C1.56288 24.2511 1.56468 24.2835 1.56846 24.3156L3.91221 43.0656C3.93582 43.2546 4.02764 43.4284 4.17041 43.5545C4.31318 43.6805 4.49706 43.75 4.6875 43.75H46.0938C46.7151 43.7493 47.3109 43.5021 47.7502 43.0627C48.1896 42.6233 48.4368 42.0276 48.4375 41.4062V38.2812C48.4379 37.705 48.2251 37.149 47.8401 36.7203C48.1487 36.3755 48.3484 35.9471 48.4139 35.4891C48.4795 35.0311 48.4079 34.5639 48.2084 34.1464C48.2811 34.0739 48.3388 33.9878 48.3781 33.8929C48.4174 33.7981 48.4376 33.6964 48.4375 33.5938V30.4688C48.4376 30.3661 48.4174 30.2644 48.3781 30.1696C48.3388 30.0747 48.2811 29.9886 48.2084 29.9161C48.3596 29.601 48.4379 29.2558 48.4375 28.9062V27.3438C48.4372 26.9944 48.3588 26.6495 48.208 26.3343C48.2808 26.2618 48.3386 26.1756 48.378 26.0807C48.4174 25.9858 48.4376 25.884 48.4375 25.7812V22.6562C48.4376 22.5539 48.4176 22.4524 48.3784 22.3578C48.3393 22.2632 48.2819 22.1772 48.2095 22.1048C48.4085 21.6871 48.4794 21.2198 48.4134 20.7619C48.3473 20.3039 48.1473 19.8757 47.8384 19.5312C48.2244 19.1024 48.4378 18.5457 48.4375 17.9688V16.4062C48.4345 13.7136 47.3634 11.1321 45.4594 9.22807C43.5554 7.32406 40.9739 6.25305 38.2813 6.25ZM20.3125 10.9375V23.4375H17.1875V10.9375H20.3125ZM21.875 15.625H25V23.4375H21.875V15.625ZM26.5625 20.3125H46.0938C46.301 20.3125 46.4997 20.3948 46.6462 20.5413C46.7927 20.6878 46.875 20.8865 46.875 21.0938C46.875 21.301 46.7927 21.4997 46.6462 21.6462C46.4997 21.7927 46.301 21.875 46.0938 21.875H26.5625V20.3125ZM31.987 35.9375C31.9277 35.4048 31.8078 34.8805 31.6296 34.375H46.0938C46.301 34.375 46.4997 34.4573 46.6462 34.6038C46.7927 34.7503 46.875 34.949 46.875 35.1562C46.875 35.3635 46.7927 35.5622 46.6462 35.7087C46.4997 35.8552 46.301 35.9375 46.0938 35.9375H31.987ZM25 42.1875C23.9179 42.1879 22.8599 41.8673 21.96 41.2663C21.0601 40.6653 20.3586 39.811 19.9443 38.8113C19.53 37.8116 19.4215 36.7115 19.6326 35.6501C19.8436 34.5887 20.3647 33.6138 21.1298 32.8486C21.895 32.0834 22.87 31.5623 23.9313 31.3513C24.9927 31.1403 26.0928 31.2488 27.0925 31.6631C28.0922 32.0774 28.9466 32.7788 29.5476 33.6787C30.1485 34.5787 30.4691 35.6366 30.4688 36.7188C30.4671 38.1687 29.8904 39.5587 28.8652 40.5839C27.84 41.6092 26.4499 42.1859 25 42.1875ZM26.2756 26.5625H34.8958L39.0625 29.6875H25.885L26.2756 26.5625ZM43.9788 32.5837C44.0537 32.6586 44.1303 32.7352 44.2092 32.8125H38.6035C38.6825 32.7352 38.7592 32.6585 38.8341 32.5835C39.5788 31.8385 40.1674 31.25 41.4063 31.25C42.6451 31.25 43.2337 31.8385 43.9788 32.5837ZM30.8472 32.8125C30.466 32.2437 30.0037 31.7338 29.4749 31.2988C30.344 31.4527 30.8573 31.9629 31.4778 32.5838C31.5527 32.6587 31.6293 32.7353 31.7082 32.8126L30.8472 32.8125ZM32.5827 31.4788C32.5079 31.4039 32.4313 31.3273 32.3524 31.25H37.959C37.8802 31.3272 37.8036 31.4038 37.7288 31.4786C36.9836 32.2239 36.3948 32.8125 35.1553 32.8125C33.9157 32.8125 33.3278 32.224 32.5827 31.4788ZM37.5 26.5625H45.3125L41.4063 29.4922L37.5 26.5625ZM46.875 32.7181C46.1305 32.5237 45.6523 32.0474 45.0837 31.4788C45.0088 31.4039 44.9322 31.3273 44.8533 31.25H46.0938C46.3599 31.2501 46.6242 31.2047 46.875 31.1156V32.7181ZM46.0938 29.6875H43.75L46.875 27.3438V28.9062C46.8748 29.1134 46.7924 29.312 46.6459 29.4584C46.4995 29.6049 46.3009 29.6873 46.0938 29.6875ZM46.875 23.4375V25H26.4709L26.5564 24.3156C26.5603 24.2835 26.5621 24.2511 26.5619 24.2188H26.5625V23.4375H46.875ZM17.8906 25C17.7108 25.8825 17.2316 26.6758 16.5341 27.2455C15.8366 27.8153 14.9636 28.1265 14.063 28.1265C13.1624 28.1265 12.2894 27.8153 11.5919 27.2455C10.8943 26.6758 10.4151 25.8825 10.2354 25H17.8906ZM15.625 15.625V23.4375H12.5V15.625H15.625ZM10.9375 10.9375V23.4375H7.8125V10.9375H10.9375ZM6.25 15.625V23.4375H3.125V15.625H6.25ZM5.37715 42.1875L3.22871 25H8.65049C8.83814 26.3016 9.48856 27.4919 10.4825 28.3528C11.4765 29.2138 12.7475 29.6877 14.0625 29.6877C15.3775 29.6877 16.6485 29.2138 17.6425 28.3528C18.6364 27.4919 19.2869 26.3016 19.4745 25H24.8963L24.306 29.7222C22.9175 29.8591 21.6013 30.4063 20.525 31.2939C19.4486 32.1816 18.6608 33.3696 18.262 34.7065C17.8632 36.0434 17.8714 37.4688 18.2855 38.8011C18.6996 40.1334 19.5009 41.3122 20.5874 42.1875H5.37715ZM46.875 41.4062C46.8748 41.6134 46.7924 41.812 46.6459 41.9584C46.4995 42.1049 46.3009 42.1873 46.0938 42.1875H29.4126C30.8549 41.0253 31.7801 39.3407 31.9868 37.5H46.0938C46.3009 37.5002 46.4995 37.5826 46.6459 37.7291C46.7924 37.8755 46.8748 38.0741 46.875 38.2812V41.4062ZM46.875 17.9688C46.8748 18.1759 46.7924 18.3745 46.6459 18.5209C46.4995 18.6674 46.3009 18.7498 46.0938 18.75H26.5625V14.8438C26.5625 14.6365 26.4802 14.4378 26.3337 14.2913C26.1872 14.1448 25.9885 14.0625 25.7813 14.0625H21.875V10.1562C21.875 9.94905 21.7927 9.75034 21.6462 9.60382C21.4997 9.45731 21.301 9.375 21.0938 9.375H20.8435C22.2898 8.35936 24.0139 7.81381 25.7813 7.8125H38.2813C40.5597 7.81508 42.744 8.72132 44.3551 10.3324C45.9662 11.9435 46.8724 14.1278 46.875 16.4062V17.9688Z" fill="black"/>
<path d="M25 9.375H26.5625V10.9375H25V9.375Z" fill="black"/>
<path d="M28.125 10.9375H29.6875V12.5H28.125V10.9375Z" fill="black"/>
<path d="M31.25 9.375H32.8125V10.9375H31.25V9.375Z" fill="black"/>
<path d="M34.375 10.9375H35.9375V12.5H34.375V10.9375Z" fill="black"/>
<path d="M37.5 9.375H39.0625V10.9375H37.5V9.375Z" fill="black"/>
<path d="M27.8962 33.8226C27.8237 33.75 27.7375 33.6925 27.6428 33.6532C27.548 33.6139 27.4464 33.5937 27.3438 33.5937C27.2412 33.5937 27.1396 33.6139 27.0448 33.6532C26.95 33.6925 26.8639 33.75 26.7913 33.8226L25 35.6139L23.2087 33.8226C23.0622 33.676 22.8635 33.5937 22.6563 33.5937C22.4491 33.5937 22.2503 33.676 22.1038 33.8226C21.9573 33.9691 21.875 34.1678 21.875 34.375C21.875 34.5822 21.9573 34.7809 22.1038 34.9274L23.8951 36.7188L22.1038 38.5101C21.9573 38.6566 21.875 38.8553 21.875 39.0625C21.875 39.2697 21.9573 39.4684 22.1038 39.6149C22.2503 39.7615 22.4491 39.8438 22.6563 39.8438C22.8635 39.8438 23.0622 39.7615 23.2087 39.6149L25 37.8236L26.7913 39.6149C26.9379 39.7615 27.1366 39.8438 27.3438 39.8438C27.551 39.8438 27.7497 39.7615 27.8962 39.6149C28.0427 39.4684 28.1251 39.2697 28.1251 39.0625C28.1251 38.8553 28.0427 38.6566 27.8962 38.5101L26.1049 36.7188L27.8962 34.9274C27.9688 34.8549 28.0263 34.7688 28.0656 34.674C28.1049 34.5792 28.1251 34.4776 28.1251 34.375C28.1251 34.2724 28.1049 34.1708 28.0656 34.076C28.0263 33.9812 27.9688 33.8951 27.8962 33.8226Z" fill="black"/>
</svg>
